<?xml version="1.0" encoding="UTF-8" standalone="no"?>
<!-- Created with Inkscape (http://www.inkscape.org/) -->

<svg
   version="1.1"
   id="svg2481"
   xml:space="preserve"
   width="682.66669"
   height="682.66669"
   viewBox="0 0 682.66669 682.66669"
   xmlns="http://www.w3.org/2000/svg"
   xmlns:svg="http://www.w3.org/2000/svg"><defs
     id="defs2485"><clipPath
       clipPathUnits="userSpaceOnUse"
       id="clipPath2495"><path
         d="M 0,512 H 512 V 0 H 0 Z"
         id="path2493" /></clipPath></defs><g
     id="g2487"
     transform="matrix(1.3333333,0,0,-1.3333333,0,682.66667)"><g
       id="g2489"><g
         id="g2491"
         clip-path="url(#clipPath2495)"><g
           id="g2497"
           transform="translate(255.9985,377.9346)"><path
             d="m 0,0 h 55.322 c 34.952,0 63.283,28.333 63.283,63.283 0,34.95 -28.331,63.283 -63.283,63.283 H 0 L -155.889,54.844 v -214.447 h 39.918 C -141.63,-80.786 -82.447,0 0,0"
             style="fill:#70dcba;fill-opacity:1;fill-rule:nonzero;stroke:none"
             id="path2499" /></g><g
           id="g2501"
           transform="translate(441.2168,319.2822)"><path
             d="m 0,0 h -106.968 c -34.951,0 -63.282,-28.333 -63.282,-63.283 0,-34.95 28.331,-63.283 63.282,-63.283 h 26.034 c -5.022,-8.241 -11.063,-15.942 -18.06,-22.939 -23.032,-23.029 -53.654,-35.712 -86.224,-35.712 -47.49,0 -88.72,27.292 -108.844,67.013 v -160.48 h 220.09 L -9.5,-239 c 0.002,0.001 0.003,0.002 0.004,0.004 46.932,46.94 72.779,109.343 72.779,175.713 C 63.283,-28.333 34.952,0 0,0"
             style="fill:#70dcba;fill-opacity:1;fill-rule:nonzero;stroke:none"
             id="path2503" /></g><g
           id="g2505"
           transform="translate(147.1553,201.0781)"><path
             d="m 0,0 c -2.799,5.523 -5.186,11.289 -7.127,17.254 -40.529,110.472 9.064,234.571 115.97,286.169 -137.024,0 -248.498,-111.479 -248.498,-248.502 0,-137.024 111.474,-248.5 248.498,-248.5 66.377,0 128.779,25.847 175.719,72.783 C 172.326,-159.961 49.321,-107.073 0,0"
             style="fill:#30cd9c;fill-opacity:1;fill-rule:nonzero;stroke:none"
             id="path2507" /></g><g
           id="g2509"
           transform="translate(207.7046,104.4453)"><path
             d="M 0,0 H -24.568 C -34.89,0 -42.583,-9.518 -40.419,-19.61 l 1.36,-6.346 c 2.288,-10.665 11.713,-18.284 22.622,-18.284 h 8.306 c 10.908,0 20.334,7.619 22.621,18.284 l 1.361,6.346 C 18.015,-9.518 10.322,0 0,0"
             style="fill:#4c5699;fill-opacity:1;fill-rule:nonzero;stroke:none"
             id="path2511" /></g><g
           id="g2513"
           transform="translate(331.5322,104.4453)"><path
             d="M 0,0 H -24.568 C -34.89,0 -42.583,-9.518 -40.419,-19.61 l 1.36,-6.346 c 2.288,-10.665 11.713,-18.284 22.622,-18.284 h 8.307 c 10.907,0 20.333,7.619 22.62,18.284 l 1.361,6.346 C 18.015,-9.518 10.321,0 0,0"
             style="fill:#4c5699;fill-opacity:1;fill-rule:nonzero;stroke:none"
             id="path2515" /></g><g
           id="g2517"
           transform="translate(422.7832,82.0088)"><path
             d="m 0,0 c -45.073,-43.212 -104.305,-67.01 -166.785,-67.01 -132.887,0 -240.998,108.113 -240.998,241 0,65.993 26.259,127.625 73.941,173.543 2.984,2.873 3.073,7.621 0.2,10.605 -2.873,2.984 -7.621,3.074 -10.605,0.2 -48.573,-46.776 -78.536,-112.16 -78.536,-184.348 0,-141.159 114.84,-255.999 255.998,-255.999 66.368,0 129.287,25.279 177.166,71.181 2.99,2.867 3.09,7.614 0.223,10.604 C 7.737,2.766 2.991,2.866 0,0"
             style="fill:#000000;fill-opacity:1;fill-rule:nonzero;stroke:none"
             id="path2519" /></g><g
           id="g2521"
           transform="translate(441.2168,326.7822)"><path
             d="m 0,0 h -106.968 c -39.03,0 -70.782,-31.753 -70.782,-70.783 0,-39.03 31.752,-70.782 70.782,-70.782 h 11.686 c -21.54,-27.26 -54.051,-43.652 -89.936,-43.652 -64.153,0 -114.478,52.509 -114.478,114.765 0,62.917 51.355,114.104 114.478,114.104 h 55.322 c 39.03,0 70.783,31.753 70.783,70.784 0,39.03 -31.753,70.782 -70.783,70.782 h -55.322 c -56.032,0 -109.277,-17.844 -153.982,-51.605 -3.305,-2.497 -3.961,-7.2 -1.465,-10.505 2.498,-3.306 7.2,-3.962 10.505,-1.465 42.08,31.779 92.2,48.576 144.942,48.576 h 55.322 c 30.758,0 55.783,-25.025 55.783,-55.783 0,-30.759 -25.025,-55.784 -55.783,-55.784 h -55.322 c -73.549,0 -129.478,-60.419 -129.478,-129.104 0,-69.887 56.384,-129.765 129.478,-129.765 44.538,0 84.662,22.449 108.407,58.652 h 15.877 c 4.143,0 7.5,3.357 7.5,7.5 0,4.142 -3.357,7.5 -7.5,7.5 h -46.034 c -30.759,0 -55.782,25.023 -55.782,55.782 0,30.759 25.023,55.783 55.782,55.783 H 0 c 30.759,0 55.783,-25.024 55.783,-55.783 0,-55.565 -19.345,-109.777 -54.474,-152.648 -2.625,-3.204 -2.156,-7.929 1.047,-10.554 3.2,-2.623 7.926,-2.16 10.556,1.047 37.318,45.545 57.871,103.133 57.871,162.155 C 70.783,-31.753 39.03,0 0,0"
             style="fill:#000000;fill-opacity:1;fill-rule:nonzero;stroke:none"
             id="path2523" /></g><g
           id="g2525"
           transform="translate(266.8101,72.0566)"><path
             d="m 0,0 c -5.724,-6.57 -15.899,-6.566 -21.62,0 -2.721,3.122 -7.459,3.447 -10.582,0.727 -3.123,-2.722 -3.448,-7.459 -0.727,-10.582 11.706,-13.431 32.545,-13.416 44.238,0 2.721,3.123 2.396,7.86 -0.727,10.582 C 7.459,3.447 2.721,3.123 0,0"
             style="fill:#000000;fill-opacity:1;fill-rule:nonzero;stroke:none"
             id="path2527" /></g><g
           id="g2529"
           transform="translate(216.2217,86.4072)"><path
             d="m 0,0 -1.36,-6.346 c -1.536,-7.16 -7.965,-12.356 -15.288,-12.356 h -8.307 c -7.323,0 -13.752,5.196 -15.287,12.356 l -1.361,6.347 c -0.554,2.584 0.081,5.245 1.743,7.301 1.661,2.055 4.131,3.235 6.775,3.235 H -8.517 C -2.975,10.537 1.158,5.398 0,0 m 90.742,10.537 h 24.569 c 2.643,0 5.112,-1.179 6.774,-3.235 1.662,-2.056 2.297,-4.717 1.742,-7.302 l -1.359,-6.346 c -1.535,-7.16 -7.965,-12.356 -15.288,-12.356 h -8.307 c -7.323,0 -13.752,5.196 -15.288,12.356 L 82.225,0 c -1.155,5.39 2.96,10.537 8.517,10.537 M 67.558,-3.145 68.918,-9.49 c 3.009,-14.03 15.607,-24.212 29.955,-24.212 h 8.307 c 14.348,0 26.946,10.182 29.954,24.212 l 1.361,6.345 c 1.508,7.036 -0.221,14.281 -4.744,19.876 -4.523,5.596 -11.244,8.806 -18.44,8.806 H 90.742 c -5.389,0 -10.513,-1.802 -14.646,-5.057 -23.708,3.009 -46.206,3.015 -69.967,0 -4.133,3.255 -9.256,5.057 -14.646,5.057 h -24.568 c -7.196,0 -13.918,-3.21 -18.441,-8.807 -4.523,-5.595 -6.252,-12.84 -4.744,-19.875 l 1.361,-6.345 c 3.009,-14.03 15.606,-24.212 29.954,-24.212 h 8.307 c 14.348,0 26.946,10.182 29.955,24.212 l 1.36,6.345 c 0.684,3.189 0.696,6.418 0.091,9.519 17.576,1.814 35.106,1.817 52.709,0 -0.604,-3.101 -0.592,-6.33 0.091,-9.519"
             style="fill:#000000;fill-opacity:1;fill-rule:nonzero;stroke:none"
             id="path2531" /></g></g></g></g></svg>
